<svg width="271" height="260" viewBox="0 0 271 260" fill="none" xmlns="http://www.w3.org/2000/svg">
<path d="M115.528 15.468C121.814 -3.87948 149.186 -3.87945 155.472 15.4681L172.882 69.0487C175.693 77.7011 183.756 83.5593 192.854 83.5593H249.192C269.535 83.5593 277.993 109.591 261.535 121.549L215.957 154.663C208.597 160.011 205.517 169.49 208.328 178.142L225.738 231.723C232.024 251.07 209.88 267.159 193.422 255.201L147.843 222.087C140.483 216.739 130.517 216.739 123.157 222.087L77.5781 255.201C61.1201 267.159 38.9761 251.07 45.2625 231.723L62.6718 178.142C65.4832 169.49 62.4034 160.011 55.0431 154.663L9.46474 121.549C-6.99325 109.591 1.46507 83.5593 21.8083 83.5593H78.1462C87.244 83.5593 95.3071 77.7011 98.1184 69.0487L115.528 15.468Z" fill="#51A2FF"/>
</svg>
